<svg xmlns="http://www.w3.org/2000/svg" version="1.1" xmlns:xlink="http://www.w3.org/1999/xlink" x="0" y="0" viewBox="0 0 512 512" style="enable-background:new 0 0 512 512" xml:space="preserve" class=""><g><path fill="#807f8d" d="M0 438.98C0 479.244 32.752 512 73.009 512s73.009-32.756 73.009-73.02v-72.318l-73.08-10.001L0 366.663z" opacity="1" data-original="#807f8d"/><path fill="#eae4f0" d="M72.745 511.993c.089 0 .176.007.265.007 40.257 0 73.009-32.756 73.009-73.02v-72.318l-73.08-10.001-.193.027v155.305z" opacity="1" data-original="#eae4f0"/><path fill="#ceabfb" d="M0 366.663h146.018v-90.149l-72.72-10.001L0 276.514z" opacity="1" data-original="#ceabfb"/><path fill="#be87fa" d="M72.745 366.663h73.273v-90.149l-72.72-10.001-.553.075z" opacity="1" data-original="#be87fa"/><path fill="#be87fa" d="M0 276.514h146.018v-86.89l-73.273-10.002L0 189.624z" opacity="1" data-original="#be87fa"/><path fill="#b169f9" d="M146.018 276.514v-86.89l-73.273-10.002v96.892z" opacity="1" data-original="#b169f9" class=""/><path fill="#b169f9" d="M0 189.624h146.018v-86.89L72.745 92.732 0 102.734z" opacity="1" data-original="#b169f9" class=""/><path fill="#b352f8" d="M146.018 189.624v-86.89L72.745 92.732v96.892z" opacity="1" data-original="#b352f8"/><path fill="#b352f8" d="M0 15.002v87.731h146.018V15.002c0-8.285-6.716-15.002-15-15.002H15C6.716 0 0 6.717 0 15.002z" opacity="1" data-original="#b352f8"/><path fill="#a144e3" d="M72.745 102.734h73.274V15.002c0-8.285-6.716-15.002-15-15.002H72.745z" opacity="1" data-original="#a144e3" class=""/><path fill="#d5cee1" d="M9.543 402.888c-19.913 34.994-7.648 79.662 27.342 99.572 34.989 19.91 79.655 7.638 99.568-27.356l35.766-62.854-58.57-44.836-68.34-27.38z" opacity="1" data-original="#d5cee1"/><path fill="#acf455" d="m45.31 340.034 126.909 72.217 44.585-78.352-58.257-44.658-68.652-27.558z" opacity="1" data-original="#acf455"/><path fill="#6ed664" d="m108.535 376.012 63.684 36.239 44.585-78.352-58.257-44.658-.518-.208z" opacity="1" data-original="#6ed664"/><path fill="#6ed664" d="m89.895 261.683 126.909 72.216 42.974-75.519-58.739-44.932-68.171-27.285z" opacity="1" data-original="#6ed664"/><path fill="#2cc07f" d="m216.804 333.899 42.974-75.519-58.739-44.932-47.919 84.212z" opacity="1" data-original="#2cc07f" class=""/><path fill="#2cc07f" d="m132.868 186.163 126.91 72.217 42.973-75.52-58.738-44.932-68.172-27.284z" opacity="1" data-original="#2cc07f" class=""/><path fill="#26ab6f" d="m259.778 258.38 42.973-75.52-58.738-44.931-47.92 84.212z" opacity="1" data-original="#26ab6f" class=""/><path fill="#26ab6f" d="m219.231 34.393-43.389 76.251 126.91 72.216 43.389-76.251c4.098-7.201 1.583-16.36-5.617-20.458L239.688 28.773c-7.201-4.097-16.359-1.581-20.457 5.62z" opacity="1" data-original="#26ab6f" class=""/><path fill="#188783" d="m239.066 146.621 63.685 36.239 43.389-76.251c4.098-7.201 1.583-16.36-5.617-20.458l-50.648-28.82z" opacity="1" data-original="#188783" class=""/><path fill="#eae4f0" d="M37.023 375.474c-35.034 19.843-47.396 64.484-27.556 99.513s64.482 47.384 99.517 27.542l62.926-35.64-27.313-68.518-44.648-58.537z" opacity="1" data-original="#eae4f0"/><path fill="#fef79c" d="m99.949 339.835 71.961 127.054 78.441-44.427-27.135-68.205-44.826-58.85z" opacity="1" data-original="#fef79c"/><path fill="#ffdf4f" d="m135.799 403.132 36.111 63.757 78.441-44.427-27.135-68.205-.339-.444z" opacity="1" data-original="#ffdf4f"/><path fill="#ffdf4f" d="m178.39 295.407 71.961 127.055 75.606-42.821-27.408-68.687-44.553-58.368z" opacity="1" data-original="#ffdf4f"/><path fill="#feb056" d="m250.351 422.462 75.606-42.821-27.408-68.687-84.308 47.751z" opacity="1" data-original="#feb056" class=""/><path fill="#feb056" d="m253.996 252.586 71.961 127.055 75.606-42.821-27.408-68.687-44.553-58.368z" opacity="1" data-original="#feb056" class=""/><path fill="#fc8256" d="m325.957 379.641 75.606-42.821-27.408-68.687-84.309 47.751z" opacity="1" data-original="#fc8256" class=""/><path fill="#fc8256" d="m405.94 166.529-76.338 43.236 71.961 127.055 76.338-43.236c7.209-4.083 9.744-13.237 5.662-20.445l-57.176-100.951c-4.083-7.209-13.238-9.742-20.447-5.659z" opacity="1" data-original="#fc8256" class=""/><path fill="#e95051" d="m365.452 273.062 36.111 63.757 76.338-43.236c7.209-4.083 9.744-13.237 5.662-20.445l-28.718-50.706z" opacity="1" data-original="#e95051" class=""/><path fill="#fdf3f3" d="M73.02 365.982C32.756 365.982 0 398.734 0 438.991S32.756 512 73.02 512h72.318l10.001-73.08-10.001-72.938z" opacity="1" data-original="#fdf3f3"/><path fill="#807f8d" d="M79.113 453.991c-8.285 0-15.002-6.707-15.002-14.991v-.018c0-8.284 6.717-15 15.002-15s15.002 6.716 15.002 15c.001 8.284-6.716 15.009-15.002 15.009z" opacity="1" data-original="#807f8d"/><path fill="#6a5e6d" d="M64.124 438.727c-.001.086-.013.169-.013.255V439c0 8.284 6.717 14.991 15.002 14.991s15.002-6.725 15.002-15.009c0-.086-.011-.169-.013-.255z" opacity="1" data-original="#6a5e6d"/><path fill="#a8ebfa" d="M145.338 365.982V512h90.148l10.002-72.72-10.002-73.298z" opacity="1" data-original="#a8ebfa"/><path fill="#76e2f8" d="M145.338 438.727V512h90.148l10.002-72.72-.076-.553z" opacity="1" data-original="#76e2f8"/><path fill="#76e2f8" d="M235.486 365.982V512h86.89l10.002-73.273-10.002-72.745z" opacity="1" data-original="#76e2f8"/><path fill="#25d9f8" d="M235.486 512h86.89l10.002-73.273h-96.892z" opacity="1" data-original="#25d9f8"/><path fill="#25d9f8" d="M322.376 365.982V512h86.89l10.002-73.273-10.002-72.745z" opacity="1" data-original="#25d9f8"/><path fill="#00c0f1" d="M322.376 512h86.89l10.002-73.273h-96.892z" opacity="1" data-original="#00c0f1"/><path fill="#00c0f1" d="M496.998 365.982h-87.731V512h87.731c8.285 0 15.002-6.716 15.002-15V380.982c0-8.284-6.717-15-15.002-15z" opacity="1" data-original="#00c0f1"/><path fill="#00a8f1" d="M409.266 438.727V512h87.731c8.285 0 15.002-6.716 15.002-15v-58.273z" opacity="1" data-original="#00a8f1"/></g></svg>